<svg id="Layer_1" data-name="Layer 1" xmlns="http://www.w3.org/2000/svg" viewBox="0 0 324 335"><defs><style>.cls-1{fill:#e5cbba;}.cls-2,.cls-3{fill:none;stroke:#000;stroke-miterlimit:10;}.cls-2{stroke-width:7px;}</style></defs><rect class="cls-1" x="0.5" y="0.5" width="323" height="334"/><path d="M323,1V334H1V1H323m1-1H0V335H324V0Z"/><line class="cls-2" x1="33.5" y1="41.5" x2="288.5" y2="41.5"/><line class="cls-3" x1="33.37" y1="84.74" x2="288.37" y2="84.74"/><line class="cls-3" x1="34.37" y1="124.74" x2="289.37" y2="124.74"/><line class="cls-3" x1="33.37" y1="160.74" x2="288.37" y2="160.74"/><line class="cls-3" x1="32.37" y1="193.74" x2="287.37" y2="193.74"/><line class="cls-3" x1="31.37" y1="226.74" x2="286.37" y2="226.74"/><line class="cls-3" x1="30.37" y1="256.74" x2="285.37" y2="256.74"/><line class="cls-3" x1="30.37" y1="285.74" x2="285.37" y2="285.74"/><line class="cls-2" x1="33" y1="84.5" x2="288" y2="84.5"/><line class="cls-2" x1="34" y1="122.5" x2="289" y2="122.5"/><line class="cls-2" x1="34" y1="160.5" x2="289" y2="160.5"/><line class="cls-2" x1="33" y1="193.5" x2="288" y2="193.5"/><line class="cls-2" x1="30" y1="226.5" x2="285" y2="226.5"/><line class="cls-2" x1="30" y1="256.5" x2="285" y2="256.5"/><line class="cls-2" x1="30" y1="285.5" x2="285" y2="285.5"/></svg>