<svg id="Layer_1" data-name="Layer 1" xmlns="http://www.w3.org/2000/svg" viewBox="0 0 504.89 480.18"><defs><style>.cls-1{fill:#ff0;}</style></defs><polygon class="cls-1" points="126.76 306.27 1.07 183.76 174.77 158.52 252.45 1.13 330.12 158.52 503.82 183.76 378.13 306.27 407.8 479.27 252.45 397.59 97.09 479.27 126.76 306.27"/><path d="M252.45,2.26l77.11,156.25.23.47.52.08,172.43,25.05L378,305.73l-.38.37.09.52,29.46,171.73L252.91,397.27l-.46-.24-.47.24L97.75,478.35l29.46-171.73.09-.52-.38-.37L2.15,184.11l172.43-25.05.52-.08.23-.47L252.45,2.26m0-2.26-78,158.07L0,183.41l126.22,123L96.43,480.18l156-82,156,82-29.8-173.73,126.22-123L330.46,158.07,252.45,0Z"/></svg>