<svg id="Layer_1" data-name="Layer 1" xmlns="http://www.w3.org/2000/svg" viewBox="0 0 504.89 480.18"><defs><style>.cls-1{fill:#ff0;}.cls-2{fill:#b3b3b3;}</style></defs><polygon class="cls-1" points="126.76 306.27 1.07 183.76 174.77 158.52 252.45 1.13 330.12 158.52 503.82 183.76 378.13 306.27 407.8 479.27 252.45 397.59 97.09 479.27 126.76 306.27"/><path d="M252.45,2.26l77.11,156.25.23.47.52.08,172.43,25.05L378,305.73l-.38.37.09.52,29.46,171.73L252.91,397.27l-.46-.24-.47.24L97.75,478.35l29.46-171.73.09-.52-.38-.37L2.15,184.11l172.43-25.05.52-.08.23-.47L252.45,2.26m0-2.26-78,158.07L0,183.41l126.22,123L96.43,480.18l156-82,156,82-29.8-173.73,126.22-123L330.46,158.07,252.45,0Z"/><polygon class="cls-2" points="153.01 292.29 53.33 195.12 191.09 175.1 252.7 50.27 314.31 175.1 452.07 195.12 352.38 292.29 375.92 429.49 252.7 364.71 129.48 429.49 153.01 292.29"/><path d="M252.7,51.39l61,123.69.24.48.52.07L451,195.47l-98.78,96.27-.37.37.09.52,23.31,136L253.16,364.39l-.46-.24-.47.24L130.14,428.58l23.32-135.95.09-.52-.38-.37L54.4,195.47l136.5-19.84.52-.07.23-.48,61-123.69m0-2.26L190.76,174.64,52.25,194.77l100.22,97.69-23.65,138L252.7,365.28l123.88,65.13-23.66-138,100.22-97.69-138.5-20.13L252.7,49.13Z"/></svg>